<!DOCTYPE svg PUBLIC "-//W3C//DTD SVG 1.1//EN" "http://www.w3.org/Graphics/SVG/1.1/DTD/svg11.dtd">
<!-- Uploaded to: SVG Repo, www.svgrepo.com, Transformed by: SVG Repo Mixer Tools -->
<svg fill="#ffa500" height="100px" width="100px" version="1.1" id="Layer_1" xmlns="http://www.w3.org/2000/svg" xmlns:xlink="http://www.w3.org/1999/xlink" viewBox="0 0 472.614 472.614" xml:space="preserve">
<g id="SVGRepo_bgCarrier" stroke-width="0"/>
<g id="SVGRepo_tracerCarrier" stroke-linecap="round" stroke-linejoin="round"/>
<g id="SVGRepo_iconCarrier"> <g> <g> <path d="M19.692,144.023C8.816,144.023,0,152.839,0,163.716v145.189c0,10.875,8.816,19.692,19.692,19.692h58.677V144.023H19.692z"/> </g> </g> <g> <g> <path d="M271.898,60.148c0-15.304-17.368-24.139-29.737-15.128l-145.252,99v184.574l145.252,99 c12.37,9.011,29.738,0.175,29.738-15.129L271.898,60.148z"/> </g> </g> <g> <g> <polygon points="472.614,172.465 458.691,158.542 394.85,222.384 331.009,158.542 317.086,172.465 380.927,236.306 317.086,300.148 331.009,314.071 394.85,250.23 458.691,314.071 472.614,300.148 408.773,236.306 "/> </g> </g> </g>
</svg>