<svg width="16" height="16" viewBox="0 0 16 16" fill="none" xmlns="http://www.w3.org/2000/svg">
<g style="mix-blend-mode:color-dodge" clip-path="url(#clip0_1_4)">
<g style="mix-blend-mode:color">
<path d="M16 8.049C16 3.603 12.418 -0.0010004 8 -0.0010004C3.58 -4.0431e-07 -0.00199986 3.603 -0.00199986 8.05C-0.00199986 12.067 2.924 15.397 6.748 16.001V10.376H4.718V8.05H6.75V6.275C6.75 4.258 7.945 3.144 9.772 3.144C10.648 3.144 11.563 3.301 11.563 3.301V5.281H10.554C9.561 5.281 9.251 5.902 9.251 6.539V8.049H11.469L11.115 10.375H9.25V16C13.074 15.396 16 12.066 16 8.049Z" fill="#F5F5F5"/>
<path d="M9.751 7.549H11.469H12.0509L11.9633 8.12423L11.6093 10.4502L11.5447 10.875H11.115H9.75V15.3911C13.0457 14.598 15.5 11.6129 15.5 8.049C15.5 3.87625 12.139 0.499061 8.00011 0.499L9.751 7.549ZM9.751 7.549V6.539C9.751 6.29246 9.8119 6.11051 9.90951 5.9968C9.99498 5.89724 10.1674 5.781 10.554 5.781H11.563H12.063V5.281V3.301V2.87949L11.6476 2.8082L11.563 3.301L11.6475 2.80819L11.6474 2.80817L11.6471 2.80812L11.6463 2.80798L11.6437 2.80754L11.6345 2.80601L11.6013 2.80058C11.5727 2.79599 11.5314 2.78954 11.4795 2.78185C11.3758 2.7665 11.2288 2.74616 11.0536 2.72583C10.7055 2.68543 10.2367 2.644 9.772 2.644C8.75662 2.644 7.86211 2.95553 7.22115 3.60074C6.58004 4.24611 6.25 5.16748 6.25 6.275V7.55H4.718H4.218V8.05V10.376V10.876H4.718H6.248V15.3921C2.95228 14.599 0.498 11.6139 0.498 8.05C0.498 3.8764 3.85888 0.499998 8 0.499L9.751 7.549Z" stroke="black" stroke-opacity="0.01"/>
</g>
</g>
<defs>
<clipPath id="clip0_1_4">
<rect width="16" height="16" fill="white"/>
</clipPath>
</defs>
</svg>
