<svg width="667" height="667" viewBox="0 0 667 667" fill="none" xmlns="http://www.w3.org/2000/svg">
<path d="M320.8 91.7106C320.4 95.1773 320 103.577 320 110.377C320 122.777 320 122.911 323.333 122.911C326.533 122.911 326.533 122.777 326.933 109.844L327.333 96.9106L331.333 107.977C335.067 118.244 337.867 121.711 341.067 119.711C341.733 119.311 343.867 114.644 346 109.311C348 103.977 350 99.1773 350.533 98.644C350.933 98.1106 351.2 103.311 350.933 110.244L350.533 122.911H353.867H357.333V104.911V86.9106H352.933C348.8 86.9106 348.533 87.1773 344 98.7773C341.467 105.444 339.067 110.511 338.667 110.111C338.267 109.711 336.133 104.111 333.867 97.844C330 87.044 329.333 86.244 325.733 85.844C321.867 85.444 321.733 85.7106 320.8 91.7106Z" fill="white"/>
<path d="M288 90.1108C288 90.6441 282.133 118.377 280.667 125.177C280.133 127.711 280.533 128.244 283.2 128.244C286.4 128.244 288 126.111 288 121.577C288 119.711 289.467 118.911 294.933 118.244C301.333 117.311 302 117.444 304.667 120.777C306.933 123.577 308.133 124.111 310.4 123.311C313.067 122.244 312.667 121.444 303.2 106.244C296.667 95.7108 292.4 90.1108 290.667 89.8441C289.2 89.5775 288 89.7108 288 90.1108ZM298.4 111.444C298.267 111.711 296 112.244 293.6 112.644C289.867 113.444 289.2 113.177 289.867 111.177C290.133 109.977 290.933 106.911 291.333 104.377L292.267 99.9775L295.6 105.577C297.467 108.644 298.667 111.311 298.4 111.444Z" fill="white"/>
<path d="M374.134 93.1774C373.734 95.3108 372.4 102.244 371.334 108.911C370.134 115.444 368.934 121.844 368.534 123.044C368.134 124.644 368.934 125.444 371.334 125.844C373.2 126.244 374.667 126.511 374.667 126.377C374.667 126.377 376.134 118.511 377.867 108.911C379.734 99.4441 380.8 91.1774 380.534 90.6441C378.934 88.1108 374.8 89.7108 374.134 93.1774Z" fill="white"/>
<path d="M396.667 96.5108C394.4 102.777 386.667 128.644 386.933 128.911C388.667 130.244 408.667 135.977 409.467 135.444C410.133 135.044 410.667 133.711 410.667 132.377C410.667 130.644 408.533 129.311 402.667 127.577C398.267 126.244 394.667 125.044 394.667 124.911C394.667 124.777 395.333 122.777 396.133 120.644L397.467 116.644L405.067 118.911C410.667 120.644 412.933 120.911 413.6 119.711C415.733 116.644 414.4 115.311 407.333 113.044C399.867 110.777 398.533 108.644 401.2 104.377C402.267 102.644 403.467 102.644 410.267 104.644C418 106.777 421.067 106.111 419.733 102.644C419.067 101.044 402.667 94.9108 398.8 94.9108C398 94.9108 396.933 95.7108 396.667 96.5108Z" fill="white"/>
<path d="M251.067 100.51C245.867 102.51 244 103.977 244 105.977C244 107.977 244.667 108.377 247.067 107.844C259.6 105.044 258 104.377 261.333 114.11C262.933 118.91 264 124.244 263.733 125.844C263.2 129.577 258.133 130.644 254.8 127.71C252.8 125.844 252.133 125.844 249.867 127.577C247.467 129.577 247.467 129.71 251.2 133.044C254.533 135.977 256 136.377 260.533 135.844C267.067 134.91 270.667 131.044 270.667 125.044C270.667 121.444 267.067 109.044 263.333 99.8438C262.133 96.9105 259.733 97.0438 251.067 100.51Z" fill="white"/>
<path d="M427.067 123.177C422.8 131.444 419.2 138.511 418.933 138.911C418.8 139.311 419.867 140.377 421.333 141.177C423.733 142.777 424.4 141.977 429.6 131.844L435.333 120.911L436.267 127.577C436.667 131.177 437.2 137.711 437.2 141.844C437.333 147.977 437.867 149.711 439.867 150.911C441.333 151.577 442.8 152.244 443.2 152.244C443.733 152.244 455.6 130.111 459.733 121.311C460 120.777 458.933 119.844 457.467 119.044C455.067 117.711 454.267 118.644 449.067 128.377L443.333 139.311L442.133 124.777C441.067 110.911 440.133 108.377 436.4 108.244C435.467 108.244 431.333 114.911 427.067 123.177Z" fill="white"/>
<path d="M212.4 117.577C202 123.844 201.467 137.444 211.333 147.177C221.6 157.444 240 149.977 240 135.444C240 128.244 237.6 123.177 232 118.377C226.8 114.111 218.667 113.711 212.4 117.577ZM228.8 125.044C237.067 133.711 233.867 145.577 223.467 145.577C220 145.577 218 144.644 215.467 141.444C209.2 133.977 209.2 125.844 215.733 122.377C221.333 119.311 224 119.844 228.8 125.044Z" fill="white"/>
<path d="M469.467 130.111C468.134 131.711 468.667 132.644 471.867 135.044C474.134 136.777 476 138.644 476 139.177C476 139.844 472.134 145.577 467.2 151.977C459.334 162.511 458.667 163.711 460.8 165.177C462.134 166.111 463.467 166.911 463.867 166.911C464.267 166.777 468.667 161.444 473.467 154.911L482.267 143.044L486.667 146.244C490 148.777 491.6 149.177 492.934 148.111C493.867 147.311 494.667 146.244 494.667 145.711C494.667 144.777 472.8 128.244 471.6 128.244C471.334 128.244 470.267 129.044 469.467 130.111Z" fill="white"/>
<path d="M173.6 144.511C172.667 145.844 175.334 149.977 183.6 160.511L194.934 174.777L203.467 167.977C208.134 164.111 212 160.644 212 160.111C212 159.711 211.067 158.511 210 157.577C208.4 156.244 207.067 156.911 202.267 160.777L196.267 165.577L187.2 154.244C177.867 142.777 176.134 141.577 173.6 144.511Z" fill="white"/>
<path d="M317.333 159.044C276.8 162.111 238.133 180.244 208.533 210.111C185.733 233.177 170 260.644 161.733 291.977C158.8 302.911 158.267 308.644 157.733 329.577C157.2 351.177 157.467 355.977 160 368.111C163.467 385.044 166.667 394.644 174 410.377C196 457.444 238.133 492.111 290.4 505.977C305.333 509.844 307.2 510.111 332.667 510.111C357.467 510.244 360.4 509.977 373.733 506.511C444 488.777 495.467 433.711 507.467 363.444C510.667 344.244 509.467 311.177 504.8 292.511C496.533 259.711 481.867 233.844 457.467 209.444C420.4 172.377 371.467 154.777 317.333 159.044ZM218.8 328.911C223.867 343.444 228 355.977 228 356.511C228 357.044 226.667 357.577 224.933 357.577C222.4 357.577 221.467 356.377 219.867 351.177L217.867 344.911L207.067 344.511L196.267 344.111L194 350.911C192.133 356.511 191.333 357.577 188.4 357.577C185.733 357.577 185.2 357.044 186 355.177C186.533 353.977 190.8 341.311 195.6 327.177C207.067 293.311 206.533 293.311 218.8 328.911ZM258.933 326.511L259.333 351.577L271.067 351.977C281.6 352.377 282.667 352.644 282.667 354.911C282.667 357.444 281.733 357.577 268 357.577H253.333V329.577C253.333 302.511 253.467 301.577 256 301.577C258.533 301.577 258.667 302.644 258.933 326.511ZM338.667 303.577C345.6 307.177 347.333 312.377 347.333 328.911C347.333 345.844 345.733 350.911 339.333 354.911C333.733 358.377 323.467 358.511 317.867 355.044C311.2 351.044 308.933 343.044 309.6 327.311C310.267 312.777 312.4 306.911 318.4 303.711C323.067 301.044 333.733 301.044 338.667 303.577ZM382.667 313.577V325.577H395.333H408V313.577C408 302.511 408.133 301.577 410.667 301.577C413.2 301.577 413.333 302.511 413.333 329.577C413.333 356.644 413.2 357.577 410.667 357.577C408.133 357.577 408 356.644 408 344.911V332.244H395.333H382.667V344.911C382.667 357.577 382.667 357.577 379.333 357.577H376V329.577V301.577H379.333C382.667 301.577 382.667 301.711 382.667 313.577ZM462.667 301.977C462.667 302.244 466.933 314.511 472 329.444C477.2 344.244 481.333 356.644 481.333 357.044C481.333 357.311 479.867 357.577 478 357.577C475.2 357.577 474.4 356.644 472.933 351.177L471.067 344.911H459.867H448.8L446.8 351.177C445.2 356.377 444.267 357.577 441.733 357.577C440 357.577 438.667 357.444 438.667 357.177C438.667 356.777 455.467 306.244 456.667 303.177C457.2 301.844 462.667 300.644 462.667 301.977Z" fill="white"/>
<path d="M202.667 323.444C200.267 330.644 198.667 336.644 199.067 337.044C199.333 337.444 203.2 337.577 207.6 337.31L215.467 336.91L211.2 323.71L206.933 310.644L202.667 323.444Z" fill="white"/>
<path d="M319.733 310.911L315.733 314.911L316.267 330.377C316.667 345.444 316.8 345.844 320.4 349.044C325.333 353.311 332 353.311 336.933 349.044C340.667 345.844 340.667 345.711 340.667 329.577C340.667 313.444 340.667 313.311 336.933 310.111C331.467 305.444 324.933 305.844 319.733 310.911Z" fill="white"/>
<path d="M455.467 323.844C453.6 330.377 452 335.977 452 336.51C452 337.177 455.6 337.577 460 337.577C464.4 337.577 468 337.31 468 336.777C468 334.51 460.667 312.244 460 312.244C459.467 312.244 457.467 317.444 455.467 323.844Z" fill="white"/>
<path d="M495.334 160.777C489.734 163.177 484.267 169.977 483.2 175.577C480.8 188.644 496 200.511 507.467 194.511C521.6 187.177 524.134 170.911 512.534 162.377C508.134 159.177 500.4 158.377 495.334 160.777ZM510.267 168.511C515.067 173.044 514.4 179.577 508.534 185.044C502.4 190.911 496.134 191.177 492.134 186.111C487.2 179.844 489.067 173.577 497.334 167.844C501.734 164.777 506.534 165.044 510.267 168.511Z" fill="white"/>
<path d="M150.8 167.444C149.467 168.911 150.933 172.777 157.467 185.844C162 194.777 165.867 202.511 166.133 202.777C166.533 203.177 167.733 202.377 168.933 201.177C170.8 199.444 170.933 198.377 169.6 195.577C167.733 191.577 168.667 189.177 173.867 184.377C176.933 181.577 177.733 181.311 180.8 182.777C183.733 184.111 184.8 183.977 186.933 181.977C188.933 180.244 189.067 179.577 187.6 178.777C185.867 177.711 153.6 165.577 152.8 165.577C152.533 165.577 151.6 166.377 150.8 167.444ZM165.867 176.777L171.067 178.911L168 182.244L164.933 185.577L161.867 180.511C158.667 175.444 157.867 172.911 159.733 173.977C160.267 174.377 163.067 175.577 165.867 176.777Z" fill="white"/>
<path d="M123.333 213.844C109.6 236.911 98.4001 268.644 94.0001 296.911C90.8001 317.444 91.7334 364.644 95.8667 383.311C100.267 403.044 107.2 423.177 115.867 440.911C124.4 458.244 127.333 462.777 128.667 461.311C129.2 460.777 125.467 451.844 120.267 441.311C102.533 405.444 94.6667 371.711 94.6667 332.244C94.8001 291.177 106.8 247.444 127.6 213.311C132.533 205.311 133.2 202.911 130.667 202.911C130.267 202.911 126.933 207.844 123.333 213.844Z" fill="white"/>
<path d="M534.267 205.044C533.867 205.444 534.933 208.111 536.667 210.911C547.067 227.311 558.667 255.311 563.867 275.844C577.867 332.377 571.733 389.177 545.867 441.311C540.933 451.044 537.467 459.444 538 459.977C541.467 463.444 560.133 421.711 567.333 394.511C573.067 372.511 575.067 354.111 574.267 328.911C572.933 286.244 562.8 249.711 542.4 213.844C536.933 204.511 536 203.311 534.267 205.044Z" fill="white"/>
<path d="M150.267 463.844C138.133 473.977 136.533 475.711 137.867 477.844C139.867 481.177 140.8 480.911 147.067 475.577L152.533 470.911L156.267 475.311C163.2 483.177 163.2 483.577 157.333 488.244C151.733 492.644 150.8 494.911 153.733 497.311C154.933 498.377 158.933 495.844 169.867 486.644C183.6 475.177 184.133 474.511 181.867 472.111C179.733 469.711 179.467 469.844 173.733 474.511L167.867 479.444L162.667 473.444L157.333 467.577L163.2 462.244C168.4 457.577 168.933 456.644 167.467 454.511C166.533 453.311 165.333 452.244 165.067 452.244C164.667 452.244 158 457.444 150.267 463.844Z" fill="white"/>
<path d="M492.267 463.177C491.333 464.111 490.667 465.444 490.667 466.111C490.8 467.311 512.933 485.444 518 488.511C519.067 489.177 522.133 486.377 526.667 480.644C533.067 472.244 533.333 471.577 531.067 469.844C528.933 468.377 528.133 468.777 523.333 474.244L518 480.377L506.4 470.911C500 465.844 494.533 461.577 494.267 461.577C494.133 461.577 493.2 462.244 492.267 463.177Z" fill="white"/>
<path d="M473.2 483.711C472 485.177 473.067 489.444 478.8 504.244C485.867 523.044 485.867 523.044 488.533 520.377C490.8 517.977 490.933 517.177 489.467 514.111C488 510.644 488.133 510.111 493.067 505.177C498.267 500.111 498.4 499.977 502.267 502.111C506.133 503.977 506.533 503.977 508.667 501.577C510.8 499.177 510.533 498.911 497.867 492.511C477.333 482.244 475.067 481.444 473.2 483.711ZM492 497.577C492 498.111 490.533 499.711 488.8 501.444L485.733 504.377L482.933 497.711L480.267 491.044L486.133 493.844C489.333 495.444 492 497.177 492 497.577Z" fill="white"/>
<path d="M181.733 497.978C164.667 507.311 164.133 507.711 166.533 509.978C168.8 512.378 169.2 512.378 173.333 510.244C177.6 508.111 177.733 508.111 181.867 511.844C184.133 513.844 186.533 515.978 187.2 516.511C187.867 517.044 187.733 519.178 186.933 521.311C185.733 524.778 186 525.711 188.133 527.711C189.467 528.911 190.933 529.711 191.2 529.444C191.467 529.178 194.267 520.644 197.333 510.511C205.2 485.578 205.067 485.444 181.733 497.978ZM194.533 499.844C194.533 500.511 193.467 503.178 192.267 505.978L190 511.178L186.267 508.244L182.533 505.311L187.6 502.111C192.933 498.778 194.667 498.244 194.533 499.844Z" fill="white"/>
<path d="M452 500.911C450.667 502.511 451.467 504.644 456.4 512.511C459.733 517.844 462.267 522.377 462 522.644C461.867 522.911 456 520.244 449.2 516.911C438.667 511.577 436.4 510.911 433.733 512.111L430.533 513.577L433.467 518.644C435.2 521.311 439.733 528.511 443.6 534.644C450 544.511 450.933 545.444 453.333 544.244C456.267 542.644 455.867 541.177 450.667 533.577C449.467 531.711 447.067 527.844 445.333 525.044L442.133 519.711L454.933 526.644C468.8 534.111 470.8 534.644 473.333 531.577C474.533 530.111 473.067 526.911 465.2 514.244C459.867 505.844 455.067 498.911 454.533 498.911C454.133 498.911 452.933 499.844 452 500.911Z" fill="white"/>
<path d="M214 515.311C210.533 521.311 206.267 528.644 204.533 531.711L201.333 537.178L209.2 541.444C219.2 546.778 225.467 546.911 229.333 541.978C231.467 539.178 232 537.178 231.333 534.111C230.8 530.644 231.067 529.578 233.2 528.911C236.4 527.978 239.2 521.311 238 517.711C237.2 515.044 234.267 512.644 225.2 507.178L220.4 504.244L214 515.311ZM228.533 516.378C232.4 519.444 232.933 521.844 230.133 524.111C228.667 525.311 227.2 525.178 223.6 523.444C218.933 521.178 218.8 521.044 220.8 517.311C223.067 512.778 223.867 512.778 228.533 516.378ZM221.867 529.711C229.333 535.578 224.267 541.844 215.733 537.444L210.533 534.778L212.933 530.911C215.733 526.244 217.067 525.978 221.867 529.711Z" fill="white"/>
<path d="M244.267 538.51C237.333 555.31 237.067 557.444 242.133 557.577C243.067 557.577 246.8 549.977 250.667 540.777C257.6 523.844 257.733 521.71 252.533 521.577C251.733 521.577 248 529.177 244.267 538.51Z" fill="white"/>
<path d="M409.733 523.177C402 524.777 396 531.711 396 538.911C396 555.311 408.4 565.044 421.733 559.177C429.6 555.711 432.667 550.911 432.533 542.644C432 528.777 422.4 520.644 409.733 523.177ZM418.667 529.977C422.933 533.311 425.333 538.377 425.333 543.711C425.333 548.244 424.667 549.977 421.867 552.111C415.333 557.177 408.8 554.911 404.133 545.977C402.133 542.111 402.267 535.977 404.4 533.311C408.133 528.511 414.933 526.911 418.667 529.977Z" fill="white"/>
<path d="M263.6 529.578C262.8 532.644 263.2 532.911 269.067 534.244C274.267 535.311 274.267 535.178 269.333 553.844C267.6 560.244 266.4 565.711 266.8 566.111C267.067 566.378 268.533 566.911 270 567.178C272.267 567.578 273.067 565.711 276.667 552.511C280.533 537.844 280.8 537.444 284 538.378C290.267 540.111 292.667 539.711 292.667 537.044C292.667 534.911 290.267 533.844 279.333 530.778C263.2 526.244 264.4 526.378 263.6 529.578Z" fill="white"/>
<path d="M376.667 533.578C375.333 535.578 383.067 568.511 384.933 569.178C385.867 569.578 387.467 569.578 388.533 569.178C390 568.644 389.6 565.044 386.267 550.378C382.933 535.444 381.867 532.244 379.867 532.244C378.533 532.244 377.067 532.778 376.667 533.578Z" fill="white"/>
<path d="M304.933 547.177C301.6 553.311 297.467 561.311 295.467 565.177L292 572.111L294.933 573.044C297.733 573.844 298.533 573.311 302 567.577C303.067 565.844 304.533 565.577 310.4 566.377C316.8 567.177 317.6 567.577 318.267 571.044C318.8 573.711 320 575.177 322.267 575.711C324 576.244 325.733 576.377 326 575.977C326.933 575.044 315.733 538.244 314.267 537.311C311.467 535.577 310.933 536.111 304.933 547.177ZM314 555.177C314.933 560.111 314.933 560.244 310.8 560.244C306 560.244 305.867 559.444 308.933 552.911C311.467 547.577 312.8 548.111 314 555.177Z" fill="white"/>
<path d="M346.667 537.711C333.734 542.911 331.2 561.311 342.267 570.911C346 574.244 347.867 574.911 353.6 574.911C359.734 574.911 360.8 574.377 365.867 569.444C371.2 563.977 371.334 563.844 368.4 562.511C365.867 561.444 364.8 561.711 362 564.777C359.2 567.844 357.734 568.377 353.067 567.977C346.134 567.444 342.534 563.177 342.4 554.911C342.4 550.111 343.067 548.511 345.867 545.977C350.267 542.244 355.867 542.111 360.4 545.577C364.134 548.511 368.4 547.844 367.734 544.511C367.067 541.177 358.8 536.244 354.134 536.377C351.867 536.377 348.534 537.044 346.667 537.711Z" fill="white"/>
</svg>
